<svg xmlns="http://www.w3.org/2000/svg" xmlns:xlink="http://www.w3.org/1999/xlink" width="500" zoomAndPan="magnify" viewBox="0 0 375 374.999991" height="500" preserveAspectRatio="xMidYMid meet" version="1.0"><defs><g/></defs><rect x="-37.5" width="450" fill="#ffffff" y="-37.499999" height="449.999989" fill-opacity="1"/><rect x="-37.5" width="450" fill="#ffffff" y="-37.499999" height="449.999989" fill-opacity="1"/><rect x="-37.5" width="450" fill="#ffffff" y="-37.499999" height="449.999989" fill-opacity="1"/><g fill="#000000" fill-opacity="1"><g transform="translate(112.344504, 202.874987)"><g><path d="M 12.8125 -13.640625 L 2.65625 -18.0625 L 2.65625 -24.21875 L 18.875 -16.21875 L 18.875 -10.984375 L 2.65625 -2.96875 L 2.65625 -9.125 Z M 12.8125 -13.640625 "/></g></g><g transform="translate(132.779073, 202.874987)"><g/></g><g transform="translate(143.150166, 202.874987)"><g><path d="M 8.796875 0 L 2.546875 0 L 2.546875 -23.78125 L 8.796875 -23.78125 Z M 2.265625 -29.921875 C 2.265625 -30.890625 2.570312 -31.679688 3.1875 -32.296875 C 3.800781 -32.910156 4.617188 -33.21875 5.640625 -33.21875 C 6.671875 -33.21875 7.492188 -32.910156 8.109375 -32.296875 C 8.722656 -31.679688 9.03125 -30.890625 9.03125 -29.921875 C 9.03125 -28.972656 8.722656 -28.179688 8.109375 -27.546875 C 7.503906 -26.921875 6.679688 -26.609375 5.640625 -26.609375 C 4.609375 -26.609375 3.785156 -26.921875 3.171875 -27.546875 C 2.566406 -28.179688 2.265625 -28.972656 2.265625 -29.921875 Z M 2.265625 -29.921875 "/></g></g><g transform="translate(154.488056, 202.874987)"><g><path d="M 12.78125 -6.375 C 12.78125 -6.894531 12.523438 -7.378906 12.015625 -7.828125 C 11.515625 -8.273438 10.394531 -8.878906 8.65625 -9.640625 C 6.09375 -10.679688 4.332031 -11.757812 3.375 -12.875 C 2.414062 -13.988281 1.9375 -15.375 1.9375 -17.03125 C 1.9375 -19.113281 2.6875 -20.832031 4.1875 -22.1875 C 5.6875 -23.539062 7.675781 -24.21875 10.15625 -24.21875 C 12.757812 -24.21875 14.84375 -23.539062 16.40625 -22.1875 C 17.976562 -20.84375 18.765625 -19.035156 18.765625 -16.765625 L 12.546875 -16.765625 C 12.546875 -18.703125 11.738281 -19.671875 10.125 -19.671875 C 9.46875 -19.671875 8.925781 -19.460938 8.5 -19.046875 C 8.070312 -18.640625 7.859375 -18.070312 7.859375 -17.34375 C 7.859375 -16.8125 8.09375 -16.34375 8.5625 -15.9375 C 9.03125 -15.539062 10.140625 -14.96875 11.890625 -14.21875 C 14.421875 -13.28125 16.207031 -12.234375 17.25 -11.078125 C 18.300781 -9.929688 18.828125 -8.441406 18.828125 -6.609375 C 18.828125 -4.484375 18.03125 -2.773438 16.4375 -1.484375 C 14.84375 -0.203125 12.75 0.4375 10.15625 0.4375 C 8.40625 0.4375 6.863281 0.0976562 5.53125 -0.578125 C 4.195312 -1.265625 3.15625 -2.210938 2.40625 -3.421875 C 1.65625 -4.640625 1.28125 -5.953125 1.28125 -7.359375 L 7.1875 -7.359375 C 7.21875 -6.273438 7.46875 -5.460938 7.9375 -4.921875 C 8.414062 -4.378906 9.195312 -4.109375 10.28125 -4.109375 C 11.945312 -4.109375 12.78125 -4.863281 12.78125 -6.375 Z M 12.78125 -6.375 "/></g></g><g transform="translate(174.922625, 202.874987)"><g><path d="M 11.03125 7.90625 C 6.601562 6.46875 4.335938 3.179688 4.234375 -1.953125 L 4.234375 -6.703125 C 4.234375 -9.765625 3.234375 -11.296875 1.234375 -11.296875 L 1.234375 -15.859375 C 3.234375 -15.859375 4.234375 -17.410156 4.234375 -20.515625 L 4.234375 -25.3125 C 4.359375 -30.394531 6.625 -33.65625 11.03125 -35.09375 L 12.21875 -31.53125 C 10.75 -30.820312 9.953125 -29 9.828125 -26.0625 L 9.796875 -20.5625 C 9.796875 -17.269531 8.632812 -14.945312 6.3125 -13.59375 C 8.632812 -12.238281 9.796875 -9.890625 9.796875 -6.546875 C 9.796875 -3.203125 9.8125 -1.289062 9.84375 -0.8125 C 10 1.9375 10.78125 3.648438 12.1875 4.328125 Z M 11.03125 7.90625 "/></g></g></g><g fill="#004aad" fill-opacity="1"><g transform="translate(188.317155, 202.874987)"><g><path d="M 9.03125 -11.25 L 9.03125 0 L 2.578125 0 L 2.578125 -32 L 13.46875 -32 C 16.632812 -32 19.15625 -31.015625 21.03125 -29.046875 C 22.914062 -27.085938 23.859375 -24.539062 23.859375 -21.40625 C 23.859375 -18.269531 22.925781 -15.789062 21.0625 -13.96875 C 19.207031 -12.15625 16.632812 -11.25 13.34375 -11.25 Z M 9.03125 -16.640625 L 13.46875 -16.640625 C 14.695312 -16.640625 15.648438 -17.039062 16.328125 -17.84375 C 17.003906 -18.644531 17.34375 -19.816406 17.34375 -21.359375 C 17.34375 -22.953125 16.992188 -24.222656 16.296875 -25.171875 C 15.609375 -26.117188 14.6875 -26.597656 13.53125 -26.609375 L 9.03125 -26.609375 Z M 9.03125 -16.640625 "/></g></g><g transform="translate(213.915298, 202.874987)"><g><path d="M 9.03125 -5.359375 L 20.375 -5.359375 L 20.375 0 L 2.578125 0 L 2.578125 -32 L 9.03125 -32 Z M 9.03125 -5.359375 "/></g></g><g transform="translate(235.4485, 202.874987)"><g><path d="M 24.328125 -3.625 C 23.078125 -2.28125 21.546875 -1.265625 19.734375 -0.578125 C 17.929688 0.0976562 15.953125 0.4375 13.796875 0.4375 C 10.117188 0.4375 7.257812 -0.695312 5.21875 -2.96875 C 3.1875 -5.25 2.144531 -8.566406 2.09375 -12.921875 L 2.09375 -18.671875 C 2.09375 -23.085938 3.050781 -26.484375 4.96875 -28.859375 C 6.894531 -31.242188 9.707031 -32.4375 13.40625 -32.4375 C 16.875 -32.4375 19.488281 -31.578125 21.25 -29.859375 C 23.019531 -28.148438 24.046875 -25.460938 24.328125 -21.796875 L 18.046875 -21.796875 C 17.867188 -23.828125 17.441406 -25.210938 16.765625 -25.953125 C 16.085938 -26.703125 15.03125 -27.078125 13.59375 -27.078125 C 11.851562 -27.078125 10.585938 -26.4375 9.796875 -25.15625 C 9.003906 -23.882812 8.59375 -21.859375 8.5625 -19.078125 L 8.5625 -13.265625 C 8.5625 -10.359375 9 -8.238281 9.875 -6.90625 C 10.75 -5.582031 12.179688 -4.921875 14.171875 -4.921875 C 15.441406 -4.921875 16.472656 -5.175781 17.265625 -5.6875 L 17.84375 -6.09375 L 17.84375 -11.953125 L 13.3125 -11.953125 L 13.3125 -16.828125 L 24.328125 -16.828125 Z M 24.328125 -3.625 "/></g></g></g><g fill="#000000" fill-opacity="1"><g transform="translate(261.770279, 202.874987)"><g><path d="M 1.1875 4.328125 C 2.007812 3.941406 2.617188 3.234375 3.015625 2.203125 C 3.410156 1.171875 3.609375 -0.332031 3.609375 -2.3125 L 3.609375 -6.609375 C 3.609375 -9.960938 4.800781 -12.285156 7.1875 -13.578125 C 4.800781 -14.878906 3.609375 -17.207031 3.609375 -20.5625 C 3.609375 -23.914062 3.597656 -25.75 3.578125 -26.0625 C 3.453125 -29.019531 2.648438 -30.84375 1.171875 -31.53125 L 2.34375 -35.09375 C 4.601562 -34.351562 6.289062 -33.160156 7.40625 -31.515625 C 8.53125 -29.878906 9.109375 -27.734375 9.140625 -25.078125 L 9.140625 -20.5 C 9.140625 -17.40625 10.148438 -15.859375 12.171875 -15.859375 L 12.171875 -11.296875 C 10.148438 -11.296875 9.140625 -9.75 9.140625 -6.65625 L 9.140625 -1.890625 C 9.023438 3.203125 6.757812 6.46875 2.34375 7.90625 Z M 1.1875 4.328125 "/></g></g></g></svg>